<svg width="35" height="35" viewBox="0 0 35 35" fill="none" xmlns="http://www.w3.org/2000/svg">
<path d="M17.5 32.0834V17.5M17.5 17.5L4.79792 10.2084M17.5 17.5L30.2021 10.2084M10.9375 6.2271L24.0625 13.7375M16.0417 31.6896C16.4851 31.9456 16.988 32.0804 17.5 32.0804C18.012 32.0804 18.5149 31.9456 18.9583 31.6896L29.1667 25.8563C29.6096 25.6005 29.9775 25.2328 30.2335 24.79C30.4895 24.3472 30.6245 23.8448 30.625 23.3334V11.6667C30.6245 11.1552 30.4895 10.6529 30.2335 10.21C29.9775 9.76723 29.6096 9.39951 29.1667 9.14377L18.9583 3.31044C18.5149 3.05445 18.012 2.91968 17.5 2.91968C16.988 2.91968 16.4851 3.05445 16.0417 3.31044L5.83333 9.14377C5.39038 9.39951 5.02247 9.76723 4.76651 10.21C4.51054 10.6529 4.37552 11.1552 4.375 11.6667V23.3334C4.37552 23.8448 4.51054 24.3472 4.76651 24.79C5.02247 25.2328 5.39038 25.6005 5.83333 25.8563L16.0417 31.6896Z" stroke="#E32083" stroke-width="2.08333" stroke-linecap="round" stroke-linejoin="round"/>
</svg>
